<svg width="162" height="85" viewBox="0 0 162 85" fill="none" xmlns="http://www.w3.org/2000/svg">
<g clip-path="url(#clip0_211_1672)">
<path d="M141.846 73.4871C142.697 72.5945 143.549 71.702 144.4 70.8094C144.744 70.4416 145.088 70.0738 145.441 69.7234C145.592 69.5625 145.667 69.4086 145.689 69.1809C145.785 67.5532 145.897 65.9161 146.006 64.2925C146.007 64.1901 146.039 64.0822 146.074 63.9608C147.774 67.2002 150.104 69.9507 152.719 72.5802C149.004 72.4406 145.393 72.5956 141.87 73.553C141.861 73.5355 141.851 73.518 141.846 73.4871Z" fill="#fff"/>
<path d="M51.6871 33.3214C51.6134 33.6221 51.5477 33.8958 51.4956 34.1735C51.4434 34.4512 51.2851 34.6391 51.0301 34.7547C50.5592 34.9533 50.0085 34.5716 50.0929 34.0836C50.2035 33.4568 50.3722 32.8324 50.5817 32.22C50.7181 31.8059 51.1421 31.6667 51.5387 31.8712C51.6935 31.946 51.833 31.9724 52.0077 31.9797C52.64 32.0337 53.2684 32.1012 53.8985 32.2131C54.2494 32.2722 54.4493 32.5947 54.4259 32.9248C54.3947 33.2819 54.1272 33.5403 53.7565 33.5486C53.4886 33.5578 53.223 33.509 52.9495 33.4873C52.5404 33.4256 52.1448 33.368 51.6871 33.3214Z" fill="#fff"/>
<path d="M14.4899 12.0604C14.3606 11.9491 14.2193 11.8783 14.1211 11.7615C13.7647 11.3198 13.4259 10.8686 13.091 10.4039C12.8505 10.0695 12.9326 9.6394 13.2504 9.41044C13.5466 9.20447 13.9868 9.26058 14.2218 9.56405C14.5781 10.0058 14.917 10.457 15.2518 10.9217C15.5251 11.295 15.3762 11.852 14.9794 11.9991C14.8432 12.0616 14.6685 12.0543 14.4899 12.0604Z" fill="#fff"/>
<path d="M58.8449 22.3994C58.3161 22.2439 58.1164 21.5699 58.5416 21.226C59.0408 20.8306 59.5864 20.4781 60.1375 20.1566C60.4745 19.9626 60.8926 20.1441 61.0574 20.4855C61.2222 20.827 61.1232 21.1642 60.7919 21.3891C60.3514 21.6846 59.911 21.9801 59.4842 22.2795C59.2835 22.411 59.0715 22.4806 58.8449 22.3994Z" fill="#fff"/>
<path d="M71.9291 31.7685C71.6697 31.6483 71.4765 31.5036 71.4083 31.2345C71.344 30.9519 71.4329 30.6996 71.663 30.5182C71.7235 30.4627 71.8112 30.4152 71.8948 30.3811C72.329 30.1571 72.7727 29.9505 73.2069 29.7265C73.4307 29.6164 73.6698 29.5548 73.9156 29.671C74.3568 29.8739 74.4639 30.4622 74.1144 30.799C74.011 30.9005 73.8668 30.99 73.7306 31.0525C73.3139 31.2671 72.9013 31.4681 72.4751 31.6652C72.3077 31.7332 72.1156 31.7354 71.9291 31.7685Z" fill="#fff"/>
<path d="M63.9963 32.1915C64.376 32.3031 64.5877 32.5851 64.5723 32.8882C64.5625 33.2223 64.3063 33.5426 63.9588 33.5724C63.3665 33.6327 62.7781 33.6796 62.1802 33.709C61.7919 33.7268 61.4852 33.4169 61.4623 33.0438C61.4449 32.7017 61.7051 32.3679 62.0877 32.3192C62.6529 32.2509 63.2237 32.2135 63.7849 32.1587C63.8607 32.1516 63.9556 32.1795 63.9963 32.1915Z" fill="#fff"/>
<path d="M32.9907 25.8048C33.041 25.8343 33.1088 25.8542 33.1591 25.8836C33.6195 26.1215 34.084 26.3459 34.5405 26.5973C34.9467 26.8192 35.0781 27.2241 34.8722 27.5739C34.6623 27.9371 34.2735 28.0572 33.8768 27.8528C33.4028 27.6109 32.9248 27.3825 32.4684 27.1312C32.1356 26.9601 31.9995 26.671 32.0715 26.3259C32.1537 25.8959 32.5743 25.6678 32.9907 25.8048Z" fill="#fff"/>
<path d="M77.5494 61.7712C77.1155 61.6437 76.8981 61.3307 76.935 61.0046C76.9838 60.638 77.2337 60.3891 77.6044 60.3808C78.1673 60.3704 78.7398 60.3775 79.3083 60.398C79.483 60.4054 79.6649 60.4882 79.7982 60.586C80.0242 60.7696 80.0924 61.0387 79.9956 61.318C79.8909 61.6242 79.6687 61.7786 79.3562 61.7894C78.9679 61.8071 78.578 61.7804 78.1976 61.7712C77.9608 61.7749 77.7105 61.7746 77.5494 61.7712Z" fill="#fff"/>
<path d="M73.8105 18.197C74.275 18.4214 74.7394 18.6458 75.1959 18.8972C75.3371 18.968 75.4546 19.1197 75.5314 19.2595C75.6657 19.5041 75.5898 19.8628 75.4043 20.0427C75.1974 20.2456 74.873 20.2968 74.5769 20.1512C74.2537 19.9976 73.9345 19.8305 73.5978 19.6729C73.4159 19.5902 73.2396 19.5384 73.0576 19.4556C72.6977 19.2766 72.5567 18.8542 72.7219 18.4925C72.8577 18.1808 73.1924 18.0447 73.5721 18.1563C73.6399 18.1762 73.7212 18.2001 73.7851 18.2335C73.7891 18.22 73.8066 18.2105 73.8105 18.197Z" fill="#fff"/>
<path d="M51.5603 47.1886C51.6713 46.8109 51.8567 46.631 52.1596 46.6028C52.4355 46.5667 52.6716 46.6654 52.8235 46.9005C52.8427 46.9354 52.8659 46.9569 52.8851 46.9918C53.1323 47.504 53.3971 48.0067 53.6268 48.5285C53.8317 48.9843 53.567 49.4339 53.0775 49.4952C52.8017 49.5314 52.5655 49.4327 52.4408 49.2055C52.1336 48.6464 51.8536 48.0953 51.5816 47.5172C51.5279 47.3988 51.5619 47.233 51.5603 47.1886Z" fill="#fff"/>
<path d="M77.4251 21.2376C77.564 21.3663 77.738 21.4761 77.8148 21.6158C78.1315 22.1924 78.3606 22.8165 78.4207 23.4642C78.446 23.7793 78.3165 24.0196 78.04 24.1582C77.7772 24.3007 77.5076 24.2654 77.2816 24.0818C77.1659 23.9745 77.0484 23.8228 77.0338 23.672C76.9436 23.1766 76.7738 22.7018 76.5689 22.246C76.408 21.891 76.5445 21.4769 76.8831 21.3274C77.0368 21.2553 77.225 21.2667 77.4251 21.2376Z" fill="#fff"/>
<path d="M62.7661 19.0832C62.8645 18.8484 63.0054 18.67 63.2348 18.591C63.7639 18.3948 64.293 18.1987 64.8413 18.0375C65.2166 17.9133 65.559 18.1019 65.6927 18.4488C65.8321 18.8268 65.694 19.1965 65.3243 19.3515C64.7737 19.5707 64.2136 19.7724 63.6574 19.9605C63.3968 20.0451 63.1567 19.9599 62.9482 19.7668C62.7438 19.5602 62.7258 19.3205 62.7661 19.0832Z" fill="#fff"/>
<path d="M119.911 61.2977C120.458 61.4437 120.685 61.7741 120.601 62.1597C120.517 62.5453 120.199 62.7743 119.759 62.7182C119.224 62.6342 118.689 62.5502 118.158 62.4527C117.752 62.3775 117.512 62.0431 117.561 61.6765C117.612 61.252 117.937 60.996 118.378 61.0522C118.93 61.1267 119.475 61.2281 119.911 61.2977Z" fill="#fff"/>
<path d="M129.335 63.3198C129.566 63.3876 129.81 63.4593 130.04 63.527C130.416 63.6521 130.622 64.0055 130.546 64.3642C130.452 64.7323 130.107 64.9533 129.72 64.8687C129.166 64.7497 128.615 64.6173 128.073 64.4579C127.675 64.3558 127.451 63.9674 127.544 63.5993C127.628 63.2137 127.965 63.0197 128.411 63.1067C128.537 63.1291 128.663 63.1515 128.785 63.1874C128.975 63.2432 129.151 63.295 129.341 63.3508C129.327 63.3468 129.331 63.3333 129.335 63.3198Z" fill="#fff"/>
<path d="M123.154 63.3496C122.675 63.2236 122.447 62.8487 122.583 62.4346C122.696 62.1014 122.974 61.905 123.325 61.9641C123.924 62.0815 124.51 62.195 125.097 62.3529C125.48 62.451 125.663 62.7829 125.569 63.1511C125.468 63.5462 125.181 63.7696 124.772 63.708C124.245 63.597 123.708 63.4686 123.154 63.3496Z" fill="#fff"/>
<path d="M133.718 66C133.447 65.9203 133.172 65.8541 132.905 65.7609C132.543 65.6398 132.347 65.3039 132.423 64.9452C132.503 64.5731 132.869 64.3291 133.239 64.4233C133.83 64.5677 134.413 64.739 134.988 64.9374C135.364 65.0624 135.517 65.4444 135.393 65.818C135.272 66.1782 134.956 66.3492 134.573 66.2511C134.284 66.1809 134.003 66.0837 133.718 66Z" fill="#fff"/>
<path d="M51.7974 44.2252C51.7079 44.5798 51.4563 44.7843 51.1359 44.822C50.8465 44.8542 50.5719 44.6856 50.4455 44.414C50.3823 44.2782 50.3541 44.1234 50.3124 43.9646C50.216 43.5407 50.1196 43.1167 50.0407 42.6833C49.9658 42.2364 50.1892 41.8772 50.5662 41.7975C50.9432 41.7178 51.2872 41.9508 51.3972 42.3787C51.5337 42.9169 51.6566 43.4512 51.7755 43.999C51.8099 44.0824 51.7957 44.1808 51.7974 44.2252Z" fill="#fff"/>
<path d="M92.7413 61.2101C92.348 61.0945 92.1538 60.803 92.1675 60.4554C92.1948 60.1118 92.4137 59.8685 92.7924 59.8332C93.3536 59.7784 93.9244 59.741 94.4912 59.7171C94.9377 59.7018 95.2619 60.0022 95.277 60.4022C95.2784 60.7983 95.0166 61.0876 94.5662 61.1164C94.04 61.1522 93.5138 61.1881 92.9877 61.2239C92.8809 61.2365 92.782 61.2221 92.7413 61.2101Z" fill="#fff"/>
<path d="M63.9166 59.0833C63.5663 58.9217 63.0301 58.6909 62.5194 58.4236C62.146 58.2406 62.0473 57.8746 62.23 57.5034C62.4048 57.1592 62.753 57.0271 63.148 57.1871C63.6474 57.3925 64.1429 57.6113 64.6384 57.8302C65.043 58.0077 65.2095 58.3936 65.0539 58.7728C64.8886 59.1345 64.5229 59.2761 63.9166 59.0833Z" fill="#fff"/>
<path d="M25.2801 22.6161C25.2298 22.5867 25.1157 22.5238 25.0055 22.4475C24.6095 22.1406 24.2096 21.8473 23.8176 21.5269C23.4718 21.2495 23.3946 20.8605 23.6333 20.5497C23.8974 20.2025 24.3151 20.1347 24.6879 20.4201C25.1342 20.7564 25.5669 21.0887 25.9957 21.4345C26.2815 21.665 26.3339 21.9881 26.1709 22.2918C26.008 22.5956 25.6909 22.7222 25.2801 22.6161Z" fill="#fff"/>
<path d="M59.6239 56.7963C59.5872 56.7708 59.4923 56.7429 59.4092 56.6746C58.9726 56.3558 58.5184 56.0465 58.0992 55.7182C57.7399 55.4368 57.713 55.0772 57.9732 54.7434C58.2079 54.4461 58.604 54.4014 58.9345 54.6304C59.3848 54.9531 59.839 55.2624 60.2852 55.5987C60.5886 55.8197 60.6737 56.1817 60.5108 56.4855C60.3479 56.7893 60.0132 56.9253 59.6239 56.7963Z" fill="#fff"/>
<path d="M12.4865 7.29601C12.328 7.83549 11.7989 8.03164 11.395 7.75177C11.2848 7.67544 11.1865 7.55865 11.1154 7.44983C10.8579 7.02253 10.6044 6.58174 10.347 6.15443C10.2374 5.97573 10.194 5.7725 10.2535 5.5702C10.3327 5.30046 10.5047 5.11655 10.7709 5.06292C11.0546 4.99979 11.3083 5.089 11.4466 5.32012C11.7928 5.84674 12.1038 6.39237 12.411 6.95148C12.4996 7.0508 12.4752 7.2341 12.4865 7.29601Z" fill="#fff"/>
<path d="M55.16 25.8149C54.6447 25.6635 54.4189 25.1283 54.7356 24.7525C55.1286 24.2673 55.5584 23.8075 56.0113 23.3692C56.2652 23.1068 56.7054 23.1629 56.9562 23.4125C57.2166 23.6795 57.2373 24.1104 56.9794 24.3863C56.6101 24.7906 56.2273 25.1909 55.8445 25.5912C55.6336 25.8076 55.3905 25.8827 55.16 25.8149Z" fill="#fff"/>
<path d="M50.9986 39.2727C50.8876 39.6503 50.6264 39.8373 50.2947 39.813C49.9901 39.7968 49.6828 39.5892 49.6671 39.2916C49.6325 38.6075 49.6464 37.9083 49.674 37.2131C49.6911 36.9544 50.0224 36.7294 50.2942 36.7067C50.5796 36.688 50.8717 36.8471 50.9806 37.1282C51.0342 37.2465 51.0528 37.3839 51.0482 37.4997C51.0451 38.0116 51.042 38.5235 51.0389 39.0354C51.0207 39.1473 50.9969 39.2282 50.9986 39.2727Z" fill="#fff"/>
<path d="M77.8299 27.1291C77.5431 27.7042 77.1709 28.2688 76.6925 28.7435C76.4426 28.9924 76.0934 28.9777 75.8075 28.7472C75.5121 28.4992 75.4462 28.1721 75.6577 27.8534C75.979 27.3617 76.3138 26.874 76.6486 26.3864C76.8308 26.1176 77.2213 26.0419 77.5174 26.1875C77.8366 26.3545 77.976 26.7325 77.8299 27.1291Z" fill="#fff"/>
<path d="M143.87 69.5547C143.421 69.3788 142.986 69.2068 142.54 69.0173C142.136 68.8398 141.952 68.4634 142.096 68.1247C142.251 67.7456 142.642 67.5675 143.068 67.722C143.585 67.9179 144.102 68.1138 144.611 68.3366C144.966 68.4847 145.124 68.8976 144.98 69.2363C144.833 69.5885 144.477 69.7475 144.083 69.632C144.02 69.5986 143.952 69.5786 143.87 69.5547Z" fill="#fff"/>
<path d="M67.1118 33.1217C66.7186 33.0061 66.526 32.759 66.5279 32.4519C66.5201 32.1273 66.7022 31.8585 67.0171 31.7898C67.6196 31.6445 68.2277 31.5302 68.8319 31.4294C69.1739 31.3687 69.4597 31.5993 69.5528 31.9343C69.6498 32.2558 69.514 32.5676 69.22 32.7156C69.1364 32.7496 69.0527 32.7836 68.973 32.8042C68.4677 32.9194 67.9664 33.0212 67.465 33.1229C67.3271 33.141 67.17 33.1241 67.1118 33.1217Z" fill="#fff"/>
<path d="M113.058 61.7597C112.665 61.6441 112.451 61.3176 112.513 60.955C112.58 60.5789 112.857 60.338 113.247 60.3647C113.821 60.4162 114.405 60.4852 114.967 60.5772C115.376 60.6388 115.607 60.9558 115.568 61.3398C115.517 61.7644 115.244 61.9918 114.786 61.9452C114.239 61.9016 113.713 61.8351 113.17 61.7781C113.126 61.7796 113.085 61.7677 113.058 61.7597Z" fill="#fff"/>
<path d="M99.817 59.6414C100.183 59.7491 100.395 60.0311 100.368 60.3747C100.34 60.7183 100.1 60.9847 99.7427 60.9969C99.1313 61.0223 98.5237 61.0342 97.9241 61.0192C97.5302 61.006 97.2874 60.7295 97.2723 60.3295C97.2629 59.9604 97.5112 59.6671 97.9034 59.6359C98.5013 59.6065 99.0874 59.6175 99.6814 59.6016C99.7492 59.6215 99.7898 59.6335 99.817 59.6414Z" fill="#fff"/>
<path d="M82.0654 60.8418C82.1662 60.5491 82.3788 60.3771 82.6952 60.3529C83.2485 60.3251 83.8018 60.2972 84.3607 60.3003C84.7897 60.2945 85.0907 60.5734 85.1058 60.9734C85.1129 61.4004 84.8765 61.6533 84.4086 61.6916C83.8377 61.729 83.2709 61.7529 82.712 61.7498C82.2113 61.7491 81.9171 61.2964 82.0654 60.8418Z" fill="#fff"/>
<path d="M17.1175 13.3455C17.1639 13.3885 17.3051 13.4593 17.4073 13.5626C17.766 13.9464 18.1031 14.3531 18.4578 14.7504C18.7526 15.1008 18.7445 15.4793 18.4595 15.7472C18.157 16.0246 17.736 16.0034 17.4197 15.6761C17.0419 15.2573 16.664 14.8386 16.2901 14.4064C16.0705 14.1513 16.0723 13.8442 16.2505 13.5889C16.4286 13.3336 16.7378 13.2339 17.1175 13.3455Z" fill="#fff"/>
<path d="M43.1042 29.9931C43.3754 30.0728 43.6466 30.1525 43.9178 30.2322C44.3207 30.3653 44.507 30.6837 44.4096 31.0654C44.3082 31.4605 43.9634 31.6815 43.543 31.5579C43.0101 31.416 42.4677 31.2566 41.9428 31.0876C41.6444 31 41.4575 30.7839 41.4147 30.4783C41.3342 30.0004 41.7441 29.608 42.2131 29.7166C42.525 29.8082 42.8194 29.9094 43.1042 29.9931Z" fill="#fff"/>
<path d="M107.997 61.2833C107.604 61.1677 107.392 60.8857 107.424 60.5286C107.463 60.1445 107.726 59.8996 108.134 59.9168C108.716 59.9413 109.294 59.9794 109.878 60.0483C110.304 60.1005 110.562 60.4254 110.519 60.823C110.484 61.1935 110.172 61.4535 109.751 61.4323C109.213 61.4062 108.697 61.3572 108.168 61.3041C108.096 61.2977 108.038 61.2952 107.997 61.2833Z" fill="#fff"/>
<path d="M68.1855 60.4991C67.9278 60.4233 67.6662 60.3611 67.4125 60.2719C67.0232 60.1428 66.8312 59.7934 66.9382 59.4293C67.0436 59.0207 67.363 58.8361 67.8049 58.9367C68.3417 59.0652 68.8825 59.1801 69.4249 59.3395C69.8589 59.4671 70.0469 59.83 69.8969 60.2401C69.7803 60.5868 69.4919 60.7658 69.1139 60.6987C68.8076 60.6379 68.5093 60.5503 68.203 60.4896C68.1894 60.4856 68.1894 60.4856 68.1855 60.4991Z" fill="#fff"/>
<path d="M105.406 60.6244C105.323 60.9077 105.103 61.1066 104.776 61.1133C104.186 61.1158 103.587 61.1007 102.995 61.0587C102.619 61.036 102.347 60.7071 102.33 60.365C102.32 59.996 102.621 59.6741 103.019 59.6738C103.609 59.6714 104.209 59.6864 104.796 59.7419C105.289 59.7695 105.537 60.1794 105.406 60.6244Z" fill="#fff"/>
<path d="M51.7965 29.0896C52.1201 28.54 52.4341 27.9729 52.7712 27.4273C52.9318 27.1815 53.2642 27.1034 53.5314 27.1966C53.8123 27.2937 54.0144 27.5583 54.0069 27.8345C54.008 27.9813 53.9604 28.1431 53.8937 28.27C53.6385 28.7372 53.3658 29.2138 53.0836 29.673C52.8856 29.9957 52.5764 30.0953 52.2453 29.9687C51.8696 29.8436 51.7047 29.5022 51.7965 29.0896Z" fill="#fff"/>
<path d="M30.4533 25.0152C30.3327 25.3754 29.881 25.609 29.5522 25.4244C28.9816 25.1102 28.4364 24.7595 27.9088 24.3993C27.6246 24.2133 27.5802 23.8632 27.7256 23.569C27.8591 23.3152 28.1746 23.1441 28.4673 23.2008C28.5933 23.2232 28.7074 23.2861 28.8215 23.3489C29.2565 23.6233 29.6915 23.8976 30.1226 24.1855C30.457 24.401 30.5659 24.6821 30.4533 25.0152Z" fill="#fff"/>
<path d="M87.6508 61.4872C87.3118 61.3876 87.1384 61.1755 87.1132 60.8604C87.0919 60.5318 87.2525 60.286 87.5521 60.1689C87.6358 60.1349 87.729 60.1183 87.8183 60.1153C88.3445 60.0794 88.8746 60.0301 89.4104 60.0117C90.0043 59.9958 90.3776 60.5304 90.1321 61.015C90.0319 61.2053 89.8815 61.3663 89.6679 61.3914C89.0349 61.4398 88.4059 61.4747 87.7768 61.5096C87.7147 61.5207 87.6644 61.4912 87.6508 61.4872Z" fill="#fff"/>
<path d="M56.9651 33.7589C56.5854 33.6473 56.368 33.3343 56.4089 32.9947C56.4481 32.6106 56.7116 32.3657 57.123 32.3694C57.682 32.3725 58.2369 32.3891 58.7879 32.4191C59.2265 32.4308 59.5196 32.7367 59.5115 33.1153C59.5033 33.4938 59.1793 33.7942 58.7544 33.7865C58.209 33.7874 57.6676 33.7748 57.1222 33.7757C57.0465 33.7828 56.9923 33.7668 56.9651 33.7589Z" fill="#fff"/>
<path d="M138.729 67.6485C138.384 67.5179 138.063 67.4087 137.749 67.2726C137.341 67.1086 137.186 66.7846 137.31 66.411C137.431 66.0508 137.82 65.8283 138.21 65.9573C138.68 66.1103 139.129 66.2863 139.592 66.4662C139.683 66.5076 139.792 66.5395 139.883 66.5809C140.206 66.7345 140.363 67.1029 140.254 67.4226C140.132 67.7383 139.777 67.9418 139.448 67.8597C139.19 67.784 138.946 67.7122 138.729 67.6485Z" fill="#fff"/>
<path d="M48.5199 31.3649C48.6148 31.3928 48.7273 31.4112 48.8222 31.4391C49.2426 31.5627 49.4369 31.8542 49.3355 32.2493C49.2477 32.6484 48.9164 32.8733 48.4937 32.8077C48.1156 32.7406 47.732 32.6425 47.3579 32.5619C47.1641 32.5195 46.9838 32.4812 46.7979 32.4119C46.4453 32.3083 46.2782 32.0248 46.3231 31.6717C46.3679 31.3185 46.5963 31.0926 46.9575 31.0669C47.0468 31.0639 47.1361 31.0608 47.231 31.0887C47.6633 31.1718 48.0916 31.2683 48.5199 31.3649Z" fill="#fff"/>
<path d="M72.5489 61.3419C72.0392 61.2214 71.8122 60.891 71.8706 60.5419C71.933 60.1792 72.2275 59.9288 72.6135 59.969C73.1877 60.0205 73.7714 60.0895 74.3512 60.172C74.7739 60.2376 74.9913 60.5506 74.9521 60.9346C74.8993 61.3147 74.6008 61.5786 74.1973 61.548C73.596 61.4885 73.0066 61.3885 72.5489 61.3419Z" fill="#fff"/>
<path d="M70.7164 18.2989C70.6156 18.5916 70.3776 18.8 70.0554 18.7933C69.4926 18.8037 68.924 18.7831 68.3555 18.7625C67.9616 18.7494 67.6821 18.4474 67.6766 18.0649C67.6712 17.6823 67.9194 17.389 68.3077 17.3712C68.9288 17.3633 69.542 17.3823 70.1647 17.4188C70.6089 17.4614 70.8528 17.8848 70.7164 18.2989Z" fill="#fff"/>
<path d="M38.5183 29.9054C38.05 29.6945 37.5601 29.5066 37.0957 29.2822C36.7182 29.1126 36.5517 28.7267 36.6955 28.388C36.8392 28.0493 37.2168 27.8673 37.5886 28.0058C38.1231 28.1922 38.6497 28.4056 39.1724 28.6324C39.5266 28.7805 39.6891 29.1799 39.5805 29.4996C39.4463 29.8558 39.0647 30.0513 38.6715 29.9357C38.6172 29.9198 38.5765 29.9078 38.5263 29.8784C38.5223 29.8919 38.5223 29.8919 38.5183 29.9054Z" fill="#fff"/>
<path d="M55.7289 53.5566C55.6786 53.5272 55.5509 53.4603 55.4718 53.3785C55.094 52.9598 54.7201 52.5275 54.3638 52.0858C54.0729 51.722 54.1336 51.3149 54.4593 51.059C54.7674 50.8125 55.163 50.8702 55.4442 51.2166C55.795 51.6273 56.1457 52.0381 56.4964 52.4488C56.7121 52.7174 56.7238 53.0285 56.5242 53.3068C56.3811 53.5431 56.0854 53.6467 55.7289 53.5566Z" fill="#fff"/>
<path d="M22.2689 18.9766C22.1302 19.4486 21.5701 19.6503 21.178 19.3299C20.703 18.9413 20.2573 18.5026 19.8117 18.0639C19.584 17.8359 19.6018 17.4748 19.7975 17.21C19.9892 16.9586 20.3294 16.8535 20.6295 16.9856C20.734 17.031 20.8306 17.1033 20.9097 17.1852C21.2802 17.5285 21.6547 17.8583 22.0213 18.2152C22.276 18.4512 22.3522 18.6933 22.2689 18.9766Z" fill="#fff"/>
</g>
<defs>
<clipPath id="clip0_211_1672">
<rect width="155.579" height="42.1717" fill="white" transform="translate(11.8906) rotate(16.377)"/>
</clipPath>
</defs>
</svg>
